<svg width="40" height="40" viewBox="0 0 40 40" fill="none" xmlns="http://www.w3.org/2000/svg">
<path d="M14.2197 22.6433C14.2197 23.8057 13.2802 24.7452 12.1178 24.7452C10.9554 24.7452 10.0159 23.8057 10.0159 22.6433C10.0159 21.4809 10.9554 20.5414 12.1178 20.5414H14.2197V22.6433Z" fill="#324BAA"/>
<path d="M15.271 22.6434C15.271 21.4809 16.2105 20.5414 17.3729 20.5414C18.5353 20.5414 19.4748 21.4809 19.4748 22.6434V27.8981C19.4748 29.0606 18.5353 30 17.3729 30C16.2105 30 15.271 29.0606 15.271 27.8981V22.6434Z" fill="#324BAA"/>
<path d="M17.3729 14.2038C16.2105 14.2038 15.271 13.2643 15.271 12.1019C15.271 10.9395 16.2105 10 17.3729 10C18.5353 10 19.4748 10.9395 19.4748 12.1019V14.2038H17.3729Z" fill="#324BAA"/>
<path d="M17.3726 15.2707C18.535 15.2707 19.4745 16.2102 19.4745 17.3726C19.4745 18.535 18.535 19.4745 17.3726 19.4745H12.1019C10.9395 19.4745 10 18.535 10 17.3726C10 16.2102 10.9395 15.2707 12.1019 15.2707H17.3726Z" fill="#324BAA"/>
<path d="M25.7965 17.3726C25.7965 16.2102 26.736 15.2707 27.8984 15.2707C29.0608 15.2707 30.0003 16.2102 30.0003 17.3726C30.0003 18.535 29.0608 19.4745 27.8984 19.4745H25.7965V17.3726Z" fill="#324BAA"/>
<path d="M24.7452 17.3726C24.7452 18.535 23.8057 19.4745 22.6433 19.4745C21.4809 19.4745 20.5414 18.535 20.5414 17.3726V12.1019C20.5414 10.9395 21.4809 10 22.6433 10C23.8057 10 24.7452 10.9395 24.7452 12.1019V17.3726Z" fill="#324BAA"/>
<path d="M22.6433 25.7962C23.8057 25.7962 24.7452 26.7357 24.7452 27.8981C24.7452 29.0605 23.8057 30 22.6433 30C21.4809 30 20.5414 29.0605 20.5414 27.8981V25.7962H22.6433Z" fill="#324BAA"/>
<path d="M22.6433 24.7452C21.4809 24.7452 20.5414 23.8057 20.5414 22.6433C20.5414 21.4809 21.4809 20.5414 22.6433 20.5414H27.914C29.0764 20.5414 30.0159 21.4809 30.0159 22.6433C30.0159 23.8057 29.0764 24.7452 27.914 24.7452H22.6433Z" fill="#324BAA"/>
</svg>
