<svg width="24" height="25" viewBox="0 0 24 25" fill="none" xmlns="http://www.w3.org/2000/svg">
<path d="M3 6.49999C4.65685 6.49999 5.99999 5.15685 5.99999 3.5C5.99999 1.84314 4.65685 0.5 3 0.5C1.34314 0.5 0 1.84314 0 3.5C0 5.15685 1.34314 6.49999 3 6.49999Z" fill="#324BAA"/>
<path d="M12 6.49999C13.6568 6.49999 15 5.15685 15 3.5C15 1.84314 13.6568 0.5 12 0.5C10.3431 0.5 9 1.84314 9 3.5C9 5.15685 10.3431 6.49999 12 6.49999Z" fill="#324BAA"/>
<path d="M21 6.49999C22.6568 6.49999 24 5.15685 24 3.5C24 1.84314 22.6568 0.5 21 0.5C19.3431 0.5 18 1.84314 18 3.5C18 5.15685 19.3431 6.49999 21 6.49999Z" fill="#324BAA"/>
<path d="M3 15.5C4.65685 15.5 5.99999 14.1568 5.99999 12.5C5.99999 10.8431 4.65685 9.5 3 9.5C1.34314 9.5 0 10.8431 0 12.5C0 14.1568 1.34314 15.5 3 15.5Z" fill="#324BAA"/>
<path d="M12 24.5C13.6568 24.5 15 23.1568 15 21.5C15 19.8431 13.6568 18.5 12 18.5C10.3431 18.5 9 19.8431 9 21.5C9 23.1568 10.3431 24.5 12 24.5Z" fill="#324BAA"/>
<path d="M21 24.5C22.6568 24.5 24 23.1568 24 21.5C24 19.8431 22.6568 18.5 21 18.5C19.3431 18.5 18 19.8431 18 21.5C18 23.1568 19.3431 24.5 21 24.5Z" fill="#324BAA"/>
<path d="M3 24.5C4.65685 24.5 5.99999 23.1568 5.99999 21.5C5.99999 19.8431 4.65685 18.5 3 18.5C1.34314 18.5 0 19.8431 0 21.5C0 23.1568 1.34314 24.5 3 24.5Z" fill="#324BAA"/>
<path d="M21 15.5C22.6568 15.5 24 14.1568 24 12.5C24 10.8431 22.6568 9.5 21 9.5C19.3431 9.5 18 10.8431 18 12.5C18 14.1568 19.3431 15.5 21 15.5Z" fill="#324BAA"/>
<path d="M12 15.5C13.6568 15.5 15 14.1568 15 12.5C15 10.8431 13.6568 9.5 12 9.5C10.3431 9.5 9 10.8431 9 12.5C9 14.1568 10.3431 15.5 12 15.5Z" fill="#324BAA"/>
</svg>
