<svg width="24" height="24" viewBox="0 0 24 24" fill="none" xmlns="http://www.w3.org/2000/svg">
<g clip-path="url(#clip0_20_70)">
<path d="M22.95 9.59979C22.7624 9.41232 22.5081 9.307 22.243 9.307C21.9778 9.307 21.7235 9.41232 21.536 9.59979L10.644 20.5388C10.1797 21.0031 9.62847 21.3715 9.02182 21.6228C8.41518 21.8742 7.76497 22.0035 7.10832 22.0036C5.78215 22.0037 4.51027 21.477 3.57246 20.5393C2.63466 19.6016 2.10775 18.3298 2.10766 17.0036C2.10756 15.6775 2.63429 14.4056 3.57196 13.4678L14.121 2.87579C14.6851 2.32068 15.4456 2.01096 16.2371 2.01409C17.0285 2.01722 17.7866 2.33294 18.3463 2.89249C18.9059 3.45204 19.2218 4.21009 19.2252 5.0015C19.2285 5.79291 18.9189 6.55357 18.364 7.11779L7.81496 17.7098C7.62471 17.892 7.37143 17.9938 7.10796 17.9938C6.8445 17.9938 6.59121 17.892 6.40096 17.7098C6.21349 17.5223 6.10818 17.268 6.10818 17.0028C6.10818 16.7376 6.21349 16.4833 6.40096 16.2958L15.793 6.86079C15.9751 6.67219 16.0759 6.41958 16.0736 6.15739C16.0714 5.89519 15.9662 5.64438 15.7808 5.45897C15.5954 5.27356 15.3446 5.16839 15.0824 5.16611C14.8202 5.16384 14.5676 5.26463 14.379 5.44679L4.98696 14.8818C4.70833 15.1604 4.48731 15.4911 4.33651 15.8551C4.18572 16.2191 4.1081 16.6093 4.1081 17.0033C4.1081 17.3973 4.18572 17.7874 4.33651 18.1515C4.48731 18.5155 4.70833 18.8462 4.98696 19.1248C5.55858 19.6703 6.31834 19.9746 7.10846 19.9746C7.89858 19.9746 8.65834 19.6703 9.22996 19.1248L19.778 8.53179C20.696 7.59009 21.206 6.32464 21.1976 5.00956C21.1891 3.69448 20.6629 2.43567 19.7329 1.50581C18.803 0.575956 17.5441 0.0499337 16.229 0.0416937C14.9139 0.0334538 13.6485 0.54366 12.707 1.46179L2.15796 12.0538C0.84514 13.3666 0.107605 15.1472 0.107605 17.0038C0.107605 18.8604 0.84514 20.641 2.15796 21.9538C3.47078 23.2666 5.25135 24.0041 7.10796 24.0041C8.96457 24.0041 10.7451 23.2666 12.058 21.9538L22.95 11.0178C23.0434 10.9249 23.1175 10.8144 23.1681 10.6927C23.2187 10.571 23.2448 10.4406 23.2448 10.3088C23.2448 10.177 23.2187 10.0465 23.1681 9.92487C23.1175 9.80319 23.0434 9.69272 22.95 9.59979Z" fill="#324BAA"/>
</g>
<defs>
<clipPath id="clip0_20_70">
<rect width="24" height="24" fill="white"/>
</clipPath>
</defs>
</svg>
