<svg width="24" height="24" viewBox="0 0 24 24" fill="none" xmlns="http://www.w3.org/2000/svg">
<g clip-path="url(#clip0_20_84)">
<path d="M13.0001 20.0001C14.3257 19.9985 15.5966 19.4712 16.5339 18.5339C17.4712 17.5966 17.9985 16.3257 18.0001 15.0001V6.24311C18.0017 5.71747 17.8989 5.19675 17.6977 4.71113C17.4965 4.22551 17.2009 3.78465 16.8281 3.41411L14.5861 1.17211C14.2156 0.799283 13.7747 0.503712 13.2891 0.302529C12.8035 0.101346 12.2828 -0.0014464 11.7571 0.000108942H7.00012C5.67453 0.0016968 4.40368 0.528991 3.46634 1.46633C2.529 2.40367 2.00171 3.67451 2.00012 5.00011V15.0001C2.00171 16.3257 2.529 17.5966 3.46634 18.5339C4.40368 19.4712 5.67453 19.9985 7.00012 20.0001H13.0001ZM4.00012 15.0001V5.00011C4.00012 4.20446 4.31619 3.4414 4.8788 2.87879C5.44141 2.31618 6.20447 2.00011 7.00012 2.00011C7.00012 2.00011 11.9191 2.01411 12.0001 2.02411V4.00011C12.0001 4.53054 12.2108 5.03925 12.5859 5.41432C12.961 5.7894 13.4697 6.00011 14.0001 6.00011H15.9761C15.9861 6.08111 16.0001 15.0001 16.0001 15.0001C16.0001 15.7958 15.6841 16.5588 15.1214 17.1214C14.5588 17.684 13.7958 18.0001 13.0001 18.0001H7.00012C6.20447 18.0001 5.44141 17.684 4.8788 17.1214C4.31619 16.5588 4.00012 15.7958 4.00012 15.0001ZM22.0001 8.00011V19.0001C21.9985 20.3257 21.4712 21.5966 20.5339 22.5339C19.5966 23.4712 18.3257 23.9985 17.0001 24.0001H8.00012C7.73491 24.0001 7.48055 23.8948 7.29302 23.7072C7.10548 23.5197 7.00012 23.2653 7.00012 23.0001C7.00012 22.7349 7.10548 22.4805 7.29302 22.293C7.48055 22.1055 7.73491 22.0001 8.00012 22.0001H17.0001C17.7958 22.0001 18.5588 21.684 19.1214 21.1214C19.6841 20.5588 20.0001 19.7958 20.0001 19.0001V8.00011C20.0001 7.73489 20.1055 7.48054 20.293 7.293C20.4806 7.10547 20.7349 7.00011 21.0001 7.00011C21.2653 7.00011 21.5197 7.10547 21.7072 7.293C21.8948 7.48054 22.0001 7.73489 22.0001 8.00011Z" fill="#324BAA"/>
</g>
<defs>
<clipPath id="clip0_20_84">
<rect width="24" height="24" fill="white"/>
</clipPath>
</defs>
</svg>
